 http://www.imdb.com/title/tt1559547/



Plot:Ethan longs to escape his small Southern town. He meets a mysterious new girl, Lena. Together, they uncover dark secrets about their respective families, their history and their town. 



Director:
 Richard LaGravenese

Writers:
 Richard LaGravenese (screenplay), Kami Garcia (novel)

Stars:
 Alice Englert, Viola Davis, Emma Thompson

Genres:
 Drama | Fantasy | Romance 

Country:
USA 




Complete name                            : Beautiful Creatures (2013) 1st CAM [READ INFO].avi
Format                                   : AVI
Format/Info                              : Audio Video Interleave
File size                                : 871 MiB
Duration                                 : 1h 57mn
Overall bit rate                         : 1 039 Kbps
Writing application                      : Lavf52.84.0

Video
ID                                       : 0
Format                                   : MPEG-4 Visual
Codec ID                                 : FMP4
Duration                                 : 1h 57mn
Bit rate                                 : 899 Kbps
Width                                    : 640 pixels
Height                                   : 256 pixels
Display aspect ratio                     : 2.500
Frame rate                               : 20.000 fps
Color space                              : YUV
Chroma subsampling                       : 4:2:0
Compression mode                         : Lossy
Bits/(Pixel*Frame)                       : 0.274
Stream size                              : 753 MiB (87%)

Audio
ID                                       : 1
Format                                   : MPEG Audio
Format version                           : Version 1
Format profile                           : Layer 3
Mode                                     : Joint stereo
Mode extension                           : MS Stereo
Codec ID                                 : 55
Codec ID/Hint                            : MP3
Duration                                 : 1h 57mn
Bit rate mode                            : Constant
Bit rate                                 : 128 Kbps
Channel(s)                               : 2 channels
Sampling rate                            : 48.0 KHz
Compression mode                         : Lossy
Stream size                              : 107 MiB (12%)
Alignment                                : Aligned on interleaves
Interleave, duration                     : 24 ms (0.48 video frame)


 
http://bayimg.com/GAjjJAAeN
 
http://bayimg.com/gAJjkAaEn
 
http://bayimg.com/gaJJMAaen